<?xml version="1.0" encoding="UTF-8" standalone="no"?>
<svg
   xmlns:dc="http://purl.org/dc/elements/1.1/"
   xmlns:cc="http://creativecommons.org/ns#"
   xmlns:rdf="http://www.w3.org/1999/02/22-rdf-syntax-ns#"
   xmlns:svg="http://www.w3.org/2000/svg"
   xmlns="http://www.w3.org/2000/svg"
   xmlns:sodipodi="http://sodipodi.sourceforge.net/DTD/sodipodi-0.dtd"
   xmlns:inkscape="http://www.inkscape.org/namespaces/inkscape"
   viewBox="0 0 666.66669 666.66669"
   height="666.66669"
   width="666.66669"
   xml:space="preserve"
   id="svg2"
   version="1.1"
   sodipodi:docname="4147970.svg"
   inkscape:version="0.92.5 (2060ec1f9f, 2020-04-08)"
   inkscape:export-filename="E:\Bruno\Faculdade\2020.4\Sistemas Distribuidos\Site de turismo\adsiter\images\logo.png"
   inkscape:export-xdpi="30.773602"
   inkscape:export-ydpi="30.773602"><sodipodi:namedview
     pagecolor="#ffffff"
     bordercolor="#666666"
     borderopacity="1"
     objecttolerance="10"
     gridtolerance="10"
     guidetolerance="10"
     inkscape:pageopacity="0"
     inkscape:pageshadow="2"
     inkscape:window-width="1366"
     inkscape:window-height="705"
     id="namedview53"
     showgrid="false"
     inkscape:zoom="0.70799998"
     inkscape:cx="399.56434"
     inkscape:cy="353.18332"
     inkscape:window-x="-8"
     inkscape:window-y="-8"
     inkscape:window-maximized="1"
     inkscape:current-layer="g12" /><metadata
     id="metadata8"><rdf:RDF><cc:Work
         rdf:about=""><dc:format>image/svg+xml</dc:format><dc:type
           rdf:resource="http://purl.org/dc/dcmitype/StillImage" /></cc:Work></rdf:RDF></metadata><defs
     id="defs6"><clipPath
   id="clipPath22"
   clipPathUnits="userSpaceOnUse"><path
     id="path20"
     d="m 2326.69,2008.5 c -3.5,25.59 -8.41,67.58 -14.17,117.61 l 28.01,27.88 c 7.89,7.93 9.26,19.6 3.05,26.11 -6.5,6.36 -18.05,5.04 -26.16,-3.04 l -9.68,-9.57 c -3.59,32.15 -7.42,66.58 -11.26,101.5 l 38.5,38.33 c 8.02,7.91 9.42,19.57 3.09,25.99 -6.33,6.3 -17.91,5.06 -25.94,-2.9 l -20.03,-20.03 c -3.74,34.79 -7.51,69.17 -11.19,101.72 l 40.17,40 c 8.12,7.88 9.37,19.65 2.94,25.98 -6.24,6.35 -17.88,5.11 -25.92,-2.91 l -21.71,-21.49 c -8.17,76.69 -14.39,136 -15.93,150.57 l 138.14,125.76 c 31.44,28.21 77.67,114.79 45.53,147.21 -32.4,32.44 -119.29,-13.4 -147.72,-44.53 l -125.67,-135.37 c -1.65,0.13 -66.39,7.17 -153.84,16.93 l 21.55,21.41 c 8.03,7.97 9.31,19.66 2.96,26.04 -6.37,6.32 -17.98,5.01 -26,-2.96 l -40.05,-39.97 c -32.57,3.56 -66.99,7.44 -101.77,11.28 l 20.17,20.05 c 7.89,7.93 9.24,19.61 2.99,25.95 -6.49,6.34 -18.07,5.11 -26.11,-2.91 l -38.45,-38.36 c -34.79,3.98 -69.03,7.81 -101.33,11.47 l 9.67,9.83 c 7.96,7.97 9.23,19.56 2.97,25.84 -6.45,6.47 -18.08,5.1 -26.16,-2.79 l -27.87,-27.84 c -50.09,5.79 -91.95,10.96 -117.64,14.44 -95.32,12.98 -223.62,-31.01 415.25,-266.26 l -175.89,-189.64 -0.01,0.01 -64.07,-60.33 -144.36,22.15 -26.21,-26.21 152.93,-77.98 74.5,-149.45 26.21,26.21 -19.27,141.49 59.73,63.32 191.39,174.41 c 232.98,-638.32 277.38,-510.18 264.66,-414.95 z" /></clipPath><linearGradient
   id="linearGradient32"
   spreadMethod="pad"
   gradientTransform="matrix(962.299,0,0,-962.299,1492.72,2408.91)"
   gradientUnits="userSpaceOnUse"
   y2="0"
   x2="1"
   y1="0"
   x1="0"><stop
     id="stop24"
     offset="0"
     style="stop-opacity:1;stop-color:#4194d7" /><stop
     id="stop26"
     offset="0.412844"
     style="stop-opacity:1;stop-color:#4194d7" /><stop
     id="stop28"
     offset="0.865428"
     style="stop-opacity:1;stop-color:#1cb6e9" /><stop
     id="stop30"
     offset="1"
     style="stop-opacity:1;stop-color:#1cb6e9" /></linearGradient><clipPath
   id="clipPath44"
   clipPathUnits="userSpaceOnUse"><path
     id="path42"
     d="m 2877.8,2583.53 c -147.93,-97.71 -333.21,-191.84 -469.27,-258.05 61.74,-9.33 125.6,-11.19 190.59,-4.22 323.69,34.71 576.47,271.8 646.44,571.88 -98.73,-110.04 -219.77,-211.93 -367.76,-309.61 z" /></clipPath><radialGradient
   id="radialGradient52"
   spreadMethod="pad"
   gradientTransform="matrix(386.667,-1066.67,-1066.67,-386.667,2227.19,3639.76)"
   gradientUnits="userSpaceOnUse"
   r="1"
   cy="0"
   cx="0"
   fy="-0.024002001"
   fx="0.085066602"><stop
     id="stop46"
     offset="0"
     style="stop-opacity:1;stop-color:#f6d20a" /><stop
     id="stop48"
     offset="0.410427"
     style="stop-opacity:1;stop-color:#f7951d" /><stop
     id="stop50"
     offset="1"
     style="stop-opacity:1;stop-color:#f35d2b" /></radialGradient><clipPath
   id="clipPath62"
   clipPathUnits="userSpaceOnUse"><path
     id="path60"
     d="m 2335.68,2597.45 c 1.81,-17.19 17.12,-169.33 20.62,-204.15 127.3,75.6 291.5,177.24 443.33,297.96 155.16,123.11 272.27,246.74 358.07,378.03 11.99,18.26 23.2,36.42 33.4,54.08 4.63,7.68 8.53,14.84 12.46,21.97 l 3.24,5.92 c 4.28,7.46 7.48,13.99 10.86,20.92 l 2.15,4.35 c 7.89,17.41 15.81,41.5 21.49,72.37 -90.65,352.57 -428.47,594.6 -801.14,554.63 -409.32,-43.9 -705.56,-411.3 -661.66,-820.62 6.42,-59.82 19.92,-117.14 39.28,-171.42 160.02,-17.32 338.16,-36.59 339.37,-36.69 l 126.51,124.14 c 63.53,69.88 166.64,80.29 212.81,40.19 44.92,-39.01 42.56,-141.87 -18.92,-202.17 z" /></clipPath><radialGradient
   id="radialGradient70"
   spreadMethod="pad"
   gradientTransform="matrix(386.667,-1066.67,-1066.67,-386.667,2227.19,3639.76)"
   gradientUnits="userSpaceOnUse"
   r="1"
   cy="0"
   cx="0"
   fy="-0.024002001"
   fx="0.085066602"><stop
     id="stop64"
     offset="0"
     style="stop-opacity:1;stop-color:#f6d20a" /><stop
     id="stop66"
     offset="0.410427"
     style="stop-opacity:1;stop-color:#f7951d" /><stop
     id="stop68"
     offset="1"
     style="stop-opacity:1;stop-color:#f35d2b" /></radialGradient><clipPath
   id="clipPath80"
   clipPathUnits="userSpaceOnUse"><path
     id="path78"
     d="m 2782.24,3759.27 c 83.79,53.76 174.65,65.5 230.79,65.34 56.13,-0.45 112.04,-9.42 165.9,-30.08 26.67,-10.1 53.81,-23.86 77.19,-39.36 23.77,-15.65 45.85,-33.78 65.89,-53.89 39.99,-40.22 71.95,-88.8 91.19,-142.37 9.66,-26.72 16.25,-54.52 19.57,-82.59 1.87,-14.45 2.28,-26.99 2.91,-40.14 0.25,-12.99 0.36,-25.93 -0.22,-38.75 -1.89,-51.33 -10.11,-101.27 -23.46,-149.76 -13.46,-48.46 -32.37,-95.48 -57.84,-139.87 -6.69,-11 -13.47,-22.18 -20.06,-31.66 -6.64,-9.88 -13.17,-19.83 -20.17,-29.44 -13.66,-19.45 -27.9,-38.46 -42.59,-57.05 -117.58,-149.17 -263.27,-269.18 -416.96,-370.64 -148.89,-98.33 -316.79,-193.24 -476.07,-270.24 -1.1,-0.53 -3.31,-1.59 -3.31,-1.59 0,0 -2.76,3.76 -3.83,5.5 0.39,0.22 1.5,0.9 1.89,1.13 156.75,92.97 311.55,191.68 453.05,304.17 141.66,112.39 270.68,240.39 367.19,388.05 12.07,18.4 23.65,37.08 34.63,56.06 5.66,9.39 10.83,19.05 16.11,28.63 5.63,9.83 9.79,18.7 14.22,27.63 16.69,36.65 28.64,76.3 35.89,116.77 7.19,40.45 10.01,81.76 7.71,121.77 -0.46,10.02 -1.51,19.87 -2.6,29.67 -1.39,9.58 -2.67,19.84 -4.74,27.88 -3.83,17.03 -9.57,33.47 -17.08,49.05 -14.94,31.22 -37.5,58.61 -64.26,80.52 -13.42,10.92 -27.9,20.54 -43.22,28.49 -15.75,8.09 -30.26,13.61 -46.81,18.17 -61.06,12.93 -72.13,14.51 -125.88,5.01 0,0 -56.89,44.09 -96.99,67.83 -55.04,32.59 -118.04,55.76 -118.04,55.76 z" /></clipPath><linearGradient
   id="linearGradient90"
   spreadMethod="pad"
   gradientTransform="matrix(1064.71,0,0,-1064.71,2371.17,3085.89)"
   gradientUnits="userSpaceOnUse"
   y2="0"
   x2="1"
   y1="0"
   x1="0"><stop
     id="stop82"
     offset="0"
     style="stop-opacity:1;stop-color:#4194d7" /><stop
     id="stop84"
     offset="0.412844"
     style="stop-opacity:1;stop-color:#4194d7" /><stop
     id="stop86"
     offset="0.865428"
     style="stop-opacity:1;stop-color:#1cb6e9" /><stop
     id="stop88"
     offset="1"
     style="stop-opacity:1;stop-color:#1cb6e9" /></linearGradient>

</defs><g
     transform="matrix(1.3333333,0,0,-1.3333333,0,666.66667)"
     id="g10"><g
       transform="scale(0.1)"
       id="g12"><g
         id="g881"
         transform="translate(-1120.1284,-217.75795)"
         inkscape:export-xdpi="194.51955"
         inkscape:export-ydpi="194.51955"
         inkscape:export-filename="C:\Users\gusta\Desktop\flowRoot883.png"><g
           style="fill:#69c934;fill-opacity:1"
           clip-path="url(#clipPath22)"
           id="g18"><path
             id="path34"
             style="fill:#69c934;fill-opacity:1;fill-rule:nonzero;stroke:none"
             d="m 2326.69,2008.5 c -3.5,25.59 -8.41,67.58 -14.17,117.61 l 28.01,27.88 c 7.89,7.93 9.26,19.6 3.05,26.11 -6.5,6.36 -18.05,5.04 -26.16,-3.04 l -9.68,-9.57 c -3.59,32.15 -7.42,66.58 -11.26,101.5 l 38.5,38.33 c 8.02,7.91 9.42,19.57 3.09,25.99 -6.33,6.3 -17.91,5.06 -25.94,-2.9 l -20.03,-20.03 c -3.74,34.79 -7.51,69.17 -11.19,101.72 l 40.17,40 c 8.12,7.88 9.37,19.65 2.94,25.98 -6.24,6.35 -17.88,5.11 -25.92,-2.91 l -21.71,-21.49 c -8.17,76.69 -14.39,136 -15.93,150.57 l 138.14,125.76 c 31.44,28.21 77.67,114.79 45.53,147.21 -32.4,32.44 -119.29,-13.4 -147.72,-44.53 l -125.67,-135.37 c -1.65,0.13 -66.39,7.17 -153.84,16.93 l 21.55,21.41 c 8.03,7.97 9.31,19.66 2.96,26.04 -6.37,6.32 -17.98,5.01 -26,-2.96 l -40.05,-39.97 c -32.57,3.56 -66.99,7.44 -101.77,11.28 l 20.17,20.05 c 7.89,7.93 9.24,19.61 2.99,25.95 -6.49,6.34 -18.07,5.11 -26.11,-2.91 l -38.45,-38.36 c -34.79,3.98 -69.03,7.81 -101.33,11.47 l 9.67,9.83 c 7.96,7.97 9.23,19.56 2.97,25.84 -6.45,6.47 -18.08,5.1 -26.16,-2.79 l -27.87,-27.84 c -50.09,5.79 -91.95,10.96 -117.64,14.44 -95.32,12.98 -223.62,-31.01 415.25,-266.26 l -175.89,-189.64 -0.01,0.01 -64.07,-60.33 -144.36,22.15 -26.21,-26.21 152.93,-77.98 74.5,-149.45 26.21,26.21 -19.27,141.49 59.73,63.32 191.39,174.41 c 232.98,-638.32 277.38,-510.18 264.66,-414.95"
             inkscape:connector-curvature="0" /></g><path
           d="m 2782.24,3759.27 c 83.79,53.76 174.65,65.5 230.79,65.34 56.13,-0.45 112.04,-9.42 165.9,-30.08 26.67,-10.1 53.81,-23.86 77.19,-39.36 23.77,-15.65 45.85,-33.78 65.89,-53.89 39.99,-40.22 71.95,-88.8 91.19,-142.37 9.66,-26.72 16.25,-54.52 19.57,-82.59 1.87,-14.45 2.28,-26.99 2.91,-40.14 0.25,-12.99 0.36,-25.93 -0.22,-38.75 -1.89,-51.33 -10.11,-101.27 -23.46,-149.76 -13.46,-48.46 -32.37,-95.48 -57.84,-139.87 -6.69,-11 -13.47,-22.18 -20.06,-31.66 -6.64,-9.88 -13.17,-19.83 -20.17,-29.44 -13.66,-19.45 -27.9,-38.46 -42.59,-57.05 -117.58,-149.17 -263.27,-269.18 -416.96,-370.64 -154.04,-101.74 -316.9,-186.32 -481.64,-265.4 157.15,93.18 311.52,191.6 453.37,304.37 141.66,112.39 270.68,240.39 367.19,388.05 12.07,18.4 23.65,37.08 34.63,56.06 5.66,9.39 10.83,19.05 16.11,28.63 5.63,9.83 9.79,18.7 14.22,27.63 16.69,36.65 28.64,76.3 35.89,116.77 7.19,40.45 10.01,81.76 7.71,121.77 -0.46,10.02 -1.51,19.87 -2.6,29.67 -1.39,9.58 -2.67,19.84 -4.74,27.88 -3.83,17.03 -9.57,33.47 -17.08,49.05 -14.94,31.22 -37.5,58.61 -64.26,80.52 -13.42,10.92 -27.9,20.54 -43.22,28.49 -15.75,8.09 -30.26,13.61 -46.81,18.17 -61.06,12.93 -72.13,14.51 -125.88,5.01 0,0 -56.89,44.09 -96.99,67.83 -55.04,32.59 -118.04,55.76 -118.04,55.76"
           style="fill:#69c934;fill-opacity:1;fill-rule:nonzero;stroke:none"
           id="path36"
           inkscape:connector-curvature="0" /><g
           style="fill:#69c934;fill-opacity:1"
           clip-path="url(#clipPath44)"
           id="g40"><path
             id="path54"
             style="fill:#69c934;fill-opacity:1;fill-rule:nonzero;stroke:none"
             d="m 2877.8,2583.53 c -147.93,-97.71 -333.21,-191.84 -469.27,-258.05 61.74,-9.33 125.6,-11.19 190.59,-4.22 323.69,34.71 576.47,271.8 646.44,571.88 -98.73,-110.04 -219.77,-211.93 -367.76,-309.61"
             inkscape:connector-curvature="0" /></g><g
           style="fill:#69c934;fill-opacity:1"
           clip-path="url(#clipPath62)"
           id="g58"><path
             id="path72"
             style="fill:#69c934;fill-opacity:1;fill-rule:nonzero;stroke:none"
             d="m 2335.68,2597.45 c 1.81,-17.19 17.12,-169.33 20.62,-204.15 127.3,75.6 291.5,177.24 443.33,297.96 155.16,123.11 272.27,246.74 358.07,378.03 11.99,18.26 23.2,36.42 33.4,54.08 4.63,7.68 8.53,14.84 12.46,21.97 l 3.24,5.92 c 4.28,7.46 7.48,13.99 10.86,20.92 l 2.15,4.35 c 7.89,17.41 15.81,41.5 21.49,72.37 -90.65,352.57 -428.47,594.6 -801.14,554.63 -409.32,-43.9 -705.56,-411.3 -661.66,-820.62 6.42,-59.82 19.92,-117.14 39.28,-171.42 160.02,-17.32 338.16,-36.59 339.37,-36.69 l 126.51,124.14 c 63.53,69.88 166.64,80.29 212.81,40.19 44.92,-39.01 42.56,-141.87 -18.92,-202.17 l -141.87,-139.51"
             inkscape:connector-curvature="0" /></g><g
           style="fill:#69c934;fill-opacity:1"
           clip-path="url(#clipPath80)"
           id="g76"><path
             id="path92"
             style="fill:#69c934;fill-opacity:1;fill-rule:nonzero;stroke:none"
             d="m 2782.24,3759.27 c 83.79,53.76 174.65,65.5 230.79,65.34 56.13,-0.45 112.04,-9.42 165.9,-30.08 26.67,-10.1 53.81,-23.86 77.19,-39.36 23.77,-15.65 45.85,-33.78 65.89,-53.89 39.99,-40.22 71.95,-88.8 91.19,-142.37 9.66,-26.72 16.25,-54.52 19.57,-82.59 1.87,-14.45 2.28,-26.99 2.91,-40.14 0.25,-12.99 0.36,-25.93 -0.22,-38.75 -1.89,-51.33 -10.11,-101.27 -23.46,-149.76 -13.46,-48.46 -32.37,-95.48 -57.84,-139.87 -6.69,-11 -13.47,-22.18 -20.06,-31.66 -6.64,-9.88 -13.17,-19.83 -20.17,-29.44 -13.66,-19.45 -27.9,-38.46 -42.59,-57.05 -117.58,-149.17 -263.27,-269.18 -416.96,-370.64 -148.89,-98.33 -316.79,-193.24 -476.07,-270.24 -1.1,-0.53 -3.31,-1.59 -3.31,-1.59 0,0 -2.76,3.76 -3.83,5.5 0.39,0.22 1.5,0.9 1.89,1.13 156.75,92.97 311.55,191.68 453.05,304.17 141.66,112.39 270.68,240.39 367.19,388.05 12.07,18.4 23.65,37.08 34.63,56.06 5.66,9.39 10.83,19.05 16.11,28.63 5.63,9.83 9.79,18.7 14.22,27.63 16.69,36.65 28.64,76.3 35.89,116.77 7.19,40.45 10.01,81.76 7.71,121.77 -0.46,10.02 -1.51,19.87 -2.6,29.67 -1.39,9.58 -2.67,19.84 -4.74,27.88 -3.83,17.03 -9.57,33.47 -17.08,49.05 -14.94,31.22 -37.5,58.61 -64.26,80.52 -13.42,10.92 -27.9,20.54 -43.22,28.49 -15.75,8.09 -30.26,13.61 -46.81,18.17 -61.06,12.93 -72.13,14.51 -125.88,5.01 0,0 -56.89,44.09 -96.99,67.83 -55.04,32.59 -118.04,55.76 -118.04,55.76"
             inkscape:connector-curvature="0" /></g></g><flowRoot
         xml:space="preserve"
         id="flowRoot883"
         style="font-style:normal;font-weight:normal;font-size:40px;line-height:1.25;font-family:sans-serif;letter-spacing:0px;word-spacing:0px;fill:#69c934;fill-opacity:1;stroke:none"
         transform="matrix(12.790472,0,0,-12.790472,-4425.5341,6900.2153)"
         inkscape:export-xdpi="194.51955"
         inkscape:export-ydpi="194.51955"
         inkscape:export-filename="C:\Users\gusta\Desktop\flowRoot883.png"><flowRegion
           id="flowRegion885"
           style="fill:#69c934;fill-opacity:1"><rect
             id="rect887"
             width="353.55341"
             height="335.57611"
             x="439.44492"
             y="279.15619"
             style="fill:#69c934;fill-opacity:1" /></flowRegion><flowPara
           id="flowPara889"
           style="font-style:normal;font-variant:normal;font-weight:800;font-stretch:normal;font-size:40.00008774px;font-family:'Rockwell Extra Bold';-inkscape-font-specification:'Rockwell Extra Bold, Ultra-Bold';font-variant-ligatures:normal;font-variant-caps:normal;font-variant-numeric:normal;font-feature-settings:normal;text-align:center;writing-mode:lr-tb;text-anchor:middle;fill:#69c934;fill-opacity:1">Bruvin</flowPara><flowPara
           id="flowPara891"
           style="font-style:normal;font-variant:normal;font-weight:800;font-stretch:normal;font-size:40.00008774px;font-family:'Rockwell Extra Bold';-inkscape-font-specification:'Rockwell Extra Bold, Ultra-Bold';font-variant-ligatures:normal;font-variant-caps:normal;font-variant-numeric:normal;font-feature-settings:normal;text-align:center;writing-mode:lr-tb;text-anchor:middle;fill:#69c934;fill-opacity:1">Viagens</flowPara></flowRoot></g></g></svg>